<mxfile host="app.diagrams.net" agent="Mozilla/5.0 (Windows NT 10.0; Win64; x64) AppleWebKit/537.36 (KHTML, like Gecko) Chrome/131.0.0.0 Safari/537.36" version="25.0.3">
  <diagram name="Page-1" id="OSjlXVxkPeuSKjrOGOUa">
    <mxGraphModel dx="2600" dy="928" grid="1" gridSize="10" guides="1" tooltips="1" connect="1" arrows="1" fold="1" page="1" pageScale="1" pageWidth="850" pageHeight="1100" math="0" shadow="0">
      <root>
        <mxCell id="0" />
        <mxCell id="1" parent="0" />
        <mxCell id="paKvx9Uk_GRRgDhh7UZd-4" style="edgeStyle=orthogonalEdgeStyle;rounded=0;orthogonalLoop=1;jettySize=auto;html=1;entryX=0;entryY=0.5;entryDx=0;entryDy=0;" parent="1" source="paKvx9Uk_GRRgDhh7UZd-1" target="paKvx9Uk_GRRgDhh7UZd-2" edge="1">
          <mxGeometry relative="1" as="geometry" />
        </mxCell>
        <mxCell id="paKvx9Uk_GRRgDhh7UZd-8" style="edgeStyle=orthogonalEdgeStyle;rounded=0;orthogonalLoop=1;jettySize=auto;html=1;entryX=0.5;entryY=0;entryDx=0;entryDy=0;" parent="1" source="paKvx9Uk_GRRgDhh7UZd-1" target="paKvx9Uk_GRRgDhh7UZd-6" edge="1">
          <mxGeometry relative="1" as="geometry" />
        </mxCell>
        <mxCell id="paKvx9Uk_GRRgDhh7UZd-1" value="&lt;font style=&quot;font-size: 17px;&quot;&gt;client&lt;/font&gt;&amp;nbsp;" style="rounded=0;whiteSpace=wrap;html=1;fillColor=#e1d5e7;strokeColor=#9673a6;" parent="1" vertex="1">
          <mxGeometry x="60" y="120" width="120" height="60" as="geometry" />
        </mxCell>
        <mxCell id="paKvx9Uk_GRRgDhh7UZd-18" style="edgeStyle=orthogonalEdgeStyle;rounded=0;orthogonalLoop=1;jettySize=auto;html=1;entryX=0.5;entryY=0;entryDx=0;entryDy=0;" parent="1" source="paKvx9Uk_GRRgDhh7UZd-2" target="paKvx9Uk_GRRgDhh7UZd-12" edge="1">
          <mxGeometry relative="1" as="geometry" />
        </mxCell>
        <mxCell id="paKvx9Uk_GRRgDhh7UZd-2" value="5" style="swimlane;fontStyle=0;childLayout=stackLayout;horizontal=1;startSize=20;horizontalStack=0;resizeParent=1;resizeParentMax=0;resizeLast=0;collapsible=0;marginBottom=0;swimlaneFillColor=#ffffff;" parent="1" vertex="1">
          <mxGeometry x="410" y="120" width="100" height="80" as="geometry" />
        </mxCell>
        <mxCell id="paKvx9Uk_GRRgDhh7UZd-3" value="&lt;span style=&quot;font-size: 17px;&quot;&gt;choose services&lt;/span&gt;" style="text;html=1;align=center;verticalAlign=middle;whiteSpace=wrap;rounded=0;fillColor=#f5f5f5;fontColor=#333333;strokeColor=#666666;" parent="paKvx9Uk_GRRgDhh7UZd-2" vertex="1">
          <mxGeometry y="20" width="100" height="60" as="geometry" />
        </mxCell>
        <mxCell id="paKvx9Uk_GRRgDhh7UZd-5" value="&lt;font style=&quot;font-size: 15px;&quot;&gt;client preference&lt;/font&gt;&amp;nbsp;" style="text;html=1;align=center;verticalAlign=middle;whiteSpace=wrap;rounded=0;" parent="1" vertex="1">
          <mxGeometry x="230" y="110" width="60" height="30" as="geometry" />
        </mxCell>
        <mxCell id="paKvx9Uk_GRRgDhh7UZd-6" value="3" style="swimlane;fontStyle=0;childLayout=stackLayout;horizontal=1;startSize=20;fillColor=#ffffff;horizontalStack=0;resizeParent=1;resizeParentMax=0;resizeLast=0;collapsible=0;marginBottom=0;swimlaneFillColor=#ffffff;" parent="1" vertex="1">
          <mxGeometry x="50" y="380" width="100" height="80" as="geometry" />
        </mxCell>
        <mxCell id="paKvx9Uk_GRRgDhh7UZd-7" value="&lt;span style=&quot;font-size: 17px;&quot;&gt;checking for avaliable details&amp;nbsp;&lt;/span&gt;" style="text;html=1;align=center;verticalAlign=middle;whiteSpace=wrap;rounded=0;fillColor=#f5f5f5;strokeColor=#666666;fontColor=#333333;" parent="paKvx9Uk_GRRgDhh7UZd-6" vertex="1">
          <mxGeometry y="20" width="100" height="60" as="geometry" />
        </mxCell>
        <mxCell id="paKvx9Uk_GRRgDhh7UZd-9" value="&lt;font style=&quot;font-size: 15px;&quot;&gt;checking avaliable&lt;/font&gt;" style="text;html=1;align=center;verticalAlign=middle;whiteSpace=wrap;rounded=0;" parent="1" vertex="1">
          <mxGeometry x="80" y="300" width="110" height="30" as="geometry" />
        </mxCell>
        <mxCell id="paKvx9Uk_GRRgDhh7UZd-10" style="edgeStyle=orthogonalEdgeStyle;rounded=0;orthogonalLoop=1;jettySize=auto;html=1;entryX=0.08;entryY=0.043;entryDx=0;entryDy=0;entryPerimeter=0;" parent="1" source="paKvx9Uk_GRRgDhh7UZd-7" target="paKvx9Uk_GRRgDhh7UZd-2" edge="1">
          <mxGeometry relative="1" as="geometry">
            <Array as="points">
              <mxPoint x="20" y="430" />
              <mxPoint x="20" y="80" />
              <mxPoint x="418" y="80" />
            </Array>
          </mxGeometry>
        </mxCell>
        <mxCell id="paKvx9Uk_GRRgDhh7UZd-11" value="&lt;span style=&quot;font-size: 15px;&quot;&gt;avaliable&lt;/span&gt;" style="text;html=1;align=center;verticalAlign=middle;whiteSpace=wrap;rounded=0;" parent="1" vertex="1">
          <mxGeometry x="130" y="50" width="60" height="30" as="geometry" />
        </mxCell>
        <mxCell id="paKvx9Uk_GRRgDhh7UZd-12" value="5.1" style="swimlane;fontStyle=0;childLayout=stackLayout;horizontal=1;startSize=20;horizontalStack=0;resizeParent=1;resizeParentMax=0;resizeLast=0;collapsible=0;marginBottom=0;swimlaneFillColor=#ffffff;" parent="1" vertex="1">
          <mxGeometry x="410" y="320" width="100" height="80" as="geometry" />
        </mxCell>
        <mxCell id="paKvx9Uk_GRRgDhh7UZd-31" style="edgeStyle=orthogonalEdgeStyle;rounded=0;orthogonalLoop=1;jettySize=auto;html=1;" parent="paKvx9Uk_GRRgDhh7UZd-12" source="paKvx9Uk_GRRgDhh7UZd-13" edge="1">
          <mxGeometry relative="1" as="geometry">
            <mxPoint x="230" y="-140" as="targetPoint" />
            <Array as="points">
              <mxPoint x="231" y="60" />
            </Array>
          </mxGeometry>
        </mxCell>
        <mxCell id="paKvx9Uk_GRRgDhh7UZd-13" value="&lt;font color=&quot;#000000&quot;&gt;&lt;span style=&quot;font-size: 14px;&quot;&gt;Contact the photographer&lt;/span&gt;&lt;/font&gt;" style="text;html=1;align=center;verticalAlign=middle;whiteSpace=wrap;rounded=0;fillColor=#f5f5f5;fontColor=#333333;strokeColor=#666666;" parent="paKvx9Uk_GRRgDhh7UZd-12" vertex="1">
          <mxGeometry y="20" width="100" height="60" as="geometry" />
        </mxCell>
        <mxCell id="paKvx9Uk_GRRgDhh7UZd-20" value="5.3" style="swimlane;fontStyle=0;childLayout=stackLayout;horizontal=1;startSize=20;horizontalStack=0;resizeParent=1;resizeParentMax=0;resizeLast=0;collapsible=0;marginBottom=0;swimlaneFillColor=#ffffff;" parent="1" vertex="1">
          <mxGeometry x="410" y="610" width="100" height="130" as="geometry" />
        </mxCell>
        <mxCell id="paKvx9Uk_GRRgDhh7UZd-21" value="&lt;span style=&quot;font-size: 17px;&quot;&gt;send invitation&amp;nbsp;&lt;/span&gt;" style="text;html=1;align=center;verticalAlign=middle;whiteSpace=wrap;rounded=0;fillColor=#f5f5f5;fontColor=#333333;strokeColor=#666666;" parent="paKvx9Uk_GRRgDhh7UZd-20" vertex="1">
          <mxGeometry y="20" width="100" height="110" as="geometry" />
        </mxCell>
        <mxCell id="paKvx9Uk_GRRgDhh7UZd-33" style="edgeStyle=orthogonalEdgeStyle;rounded=0;orthogonalLoop=1;jettySize=auto;html=1;entryX=0.5;entryY=1;entryDx=0;entryDy=0;" parent="1" source="paKvx9Uk_GRRgDhh7UZd-22" target="paKvx9Uk_GRRgDhh7UZd-13" edge="1">
          <mxGeometry relative="1" as="geometry" />
        </mxCell>
        <mxCell id="paKvx9Uk_GRRgDhh7UZd-22" value="5.2" style="swimlane;fontStyle=0;childLayout=stackLayout;horizontal=1;startSize=20;horizontalStack=0;resizeParent=1;resizeParentMax=0;resizeLast=0;collapsible=0;marginBottom=0;swimlaneFillColor=#ffffff;" parent="1" vertex="1">
          <mxGeometry x="410" y="470" width="100" height="80" as="geometry" />
        </mxCell>
        <mxCell id="paKvx9Uk_GRRgDhh7UZd-23" value="&lt;span style=&quot;font-size: 15px;&quot;&gt;choose party halls&lt;/span&gt;" style="text;html=1;align=center;verticalAlign=middle;whiteSpace=wrap;rounded=0;fillColor=#f5f5f5;fontColor=#333333;strokeColor=#666666;" parent="paKvx9Uk_GRRgDhh7UZd-22" vertex="1">
          <mxGeometry y="20" width="100" height="60" as="geometry" />
        </mxCell>
        <mxCell id="paKvx9Uk_GRRgDhh7UZd-25" value="choose photographic&amp;nbsp;" style="text;html=1;align=center;verticalAlign=middle;whiteSpace=wrap;rounded=0;" parent="1" vertex="1">
          <mxGeometry x="470" y="260" width="60" height="30" as="geometry" />
        </mxCell>
        <mxCell id="paKvx9Uk_GRRgDhh7UZd-30" style="edgeStyle=orthogonalEdgeStyle;rounded=0;orthogonalLoop=1;jettySize=auto;html=1;entryX=1;entryY=0.5;entryDx=0;entryDy=0;" parent="1" source="paKvx9Uk_GRRgDhh7UZd-26" target="paKvx9Uk_GRRgDhh7UZd-13" edge="1">
          <mxGeometry relative="1" as="geometry" />
        </mxCell>
        <mxCell id="paKvx9Uk_GRRgDhh7UZd-26" value="D2.1" style="html=1;dashed=0;whiteSpace=wrap;shape=mxgraph.dfd.dataStoreID;align=left;spacingLeft=3;points=[[0,0],[0.5,0],[1,0],[0,0.5],[1,0.5],[0,1],[0.5,1],[1,1]];" parent="1" vertex="1">
          <mxGeometry x="620" y="145" width="160" height="30" as="geometry" />
        </mxCell>
        <mxCell id="paKvx9Uk_GRRgDhh7UZd-27" value="&lt;font style=&quot;font-size: 14px;&quot;&gt;photographic data&amp;nbsp;&lt;/font&gt;" style="text;html=1;align=center;verticalAlign=middle;whiteSpace=wrap;rounded=0;" parent="1" vertex="1">
          <mxGeometry x="650" y="145" width="110" height="30" as="geometry" />
        </mxCell>
        <mxCell id="paKvx9Uk_GRRgDhh7UZd-29" value="photographic info&amp;nbsp;" style="text;html=1;align=center;verticalAlign=middle;whiteSpace=wrap;rounded=0;" parent="1" vertex="1">
          <mxGeometry x="520" y="130" width="100" height="30" as="geometry" />
        </mxCell>
        <mxCell id="paKvx9Uk_GRRgDhh7UZd-32" value="&lt;font style=&quot;font-size: 14px;&quot;&gt;new photographer&lt;/font&gt;" style="text;html=1;align=center;verticalAlign=middle;whiteSpace=wrap;rounded=0;" parent="1" vertex="1">
          <mxGeometry x="650" y="300" width="100" height="30" as="geometry" />
        </mxCell>
        <mxCell id="paKvx9Uk_GRRgDhh7UZd-34" value="&lt;font style=&quot;font-size: 14px;&quot;&gt;date and details&amp;nbsp;&lt;/font&gt;" style="text;html=1;align=center;verticalAlign=middle;whiteSpace=wrap;rounded=0;" parent="1" vertex="1">
          <mxGeometry x="480" y="430" width="60" height="30" as="geometry" />
        </mxCell>
        <mxCell id="paKvx9Uk_GRRgDhh7UZd-35" style="edgeStyle=orthogonalEdgeStyle;rounded=0;orthogonalLoop=1;jettySize=auto;html=1;entryX=0;entryY=0.75;entryDx=0;entryDy=0;" parent="1" source="paKvx9Uk_GRRgDhh7UZd-3" target="paKvx9Uk_GRRgDhh7UZd-23" edge="1">
          <mxGeometry relative="1" as="geometry">
            <Array as="points">
              <mxPoint x="350" y="190" />
              <mxPoint x="350" y="535" />
            </Array>
          </mxGeometry>
        </mxCell>
        <mxCell id="paKvx9Uk_GRRgDhh7UZd-36" value="&lt;font style=&quot;font-size: 14px;&quot;&gt;The appropriate date&lt;/font&gt;" style="text;html=1;align=center;verticalAlign=middle;whiteSpace=wrap;rounded=0;" parent="1" vertex="1">
          <mxGeometry x="280" y="390" width="60" height="30" as="geometry" />
        </mxCell>
        <mxCell id="paKvx9Uk_GRRgDhh7UZd-37" style="edgeStyle=orthogonalEdgeStyle;rounded=0;orthogonalLoop=1;jettySize=auto;html=1;entryX=0.5;entryY=0;entryDx=0;entryDy=0;" parent="1" source="paKvx9Uk_GRRgDhh7UZd-23" target="paKvx9Uk_GRRgDhh7UZd-20" edge="1">
          <mxGeometry relative="1" as="geometry" />
        </mxCell>
        <mxCell id="paKvx9Uk_GRRgDhh7UZd-38" value="Wedding date" style="text;html=1;align=center;verticalAlign=middle;whiteSpace=wrap;rounded=0;" parent="1" vertex="1">
          <mxGeometry x="480" y="570" width="60" height="30" as="geometry" />
        </mxCell>
        <mxCell id="paKvx9Uk_GRRgDhh7UZd-41" style="edgeStyle=orthogonalEdgeStyle;rounded=0;orthogonalLoop=1;jettySize=auto;html=1;entryX=0;entryY=0.5;entryDx=0;entryDy=0;" parent="1" source="paKvx9Uk_GRRgDhh7UZd-21" edge="1">
          <mxGeometry relative="1" as="geometry">
            <mxPoint x="680" y="635" as="targetPoint" />
          </mxGeometry>
        </mxCell>
        <mxCell id="paKvx9Uk_GRRgDhh7UZd-43" value="D2.2" style="html=1;dashed=0;whiteSpace=wrap;shape=mxgraph.dfd.dataStoreID;align=left;spacingLeft=3;points=[[0,0],[0.5,0],[1,0],[0,0.5],[1,0.5],[0,1],[0.5,1],[1,1]];" parent="1" vertex="1">
          <mxGeometry x="680" y="620" width="150" height="30" as="geometry" />
        </mxCell>
        <mxCell id="paKvx9Uk_GRRgDhh7UZd-44" value="&lt;span style=&quot;color: rgba(0, 0, 0, 0); font-family: monospace; font-size: 0px; text-align: start; text-wrap-mode: nowrap;&quot;&gt;%3CmxGraphModel%3E%3Croot%3E%3CmxCell%20id%3D%220%22%2F%3E%3CmxCell%20id%3D%221%22%20parent%3D%220%22%2F%3E%3CmxCell%20id%3D%222%22%20value%3D%22%26lt%3Bfont%20style%3D%26quot%3Bfont-size%3A%2014px%3B%26quot%3B%26gt%3Bstore%20guests%26lt%3B%2Ffont%26gt%3B%22%20style%3D%22text%3Bhtml%3D1%3Balign%3Dcenter%3BverticalAlign%3Dmiddle%3BwhiteSpace%3Dwrap%3Brounded%3D0%3B%22%20vertex%3D%221%22%20parent%3D%221%22%3E%3CmxGeometry%20x%3D%22660%22%20y%3D%22730%22%20width%3D%22130%22%20height%3D%2230%22%20as%3D%22geometry%22%2F%3E%3C%2FmxCell%3E%3C%2Froot%3E%3C%2FmxGraphModel%3E&lt;/span&gt;" style="text;html=1;align=center;verticalAlign=middle;whiteSpace=wrap;rounded=0;" parent="1" vertex="1">
          <mxGeometry x="710" y="630" width="60" height="30" as="geometry" />
        </mxCell>
        <mxCell id="paKvx9Uk_GRRgDhh7UZd-45" value="&lt;font style=&quot;font-size: 14px;&quot;&gt;store invitation&lt;/font&gt;" style="text;html=1;align=center;verticalAlign=middle;whiteSpace=wrap;rounded=0;" parent="1" vertex="1">
          <mxGeometry x="710" y="620" width="130" height="30" as="geometry" />
        </mxCell>
        <mxCell id="xHljszJYPhc9ebfFINsq-2" value="3.1" style="swimlane;fontStyle=0;childLayout=stackLayout;horizontal=1;startSize=20;fillColor=#ffffff;horizontalStack=0;resizeParent=1;resizeParentMax=0;resizeLast=0;collapsible=0;marginBottom=0;swimlaneFillColor=#ffffff;" parent="1" vertex="1">
          <mxGeometry x="50" y="550" width="100" height="110" as="geometry" />
        </mxCell>
        <mxCell id="xHljszJYPhc9ebfFINsq-4" value="&lt;font style=&quot;font-size: 16px;&quot;&gt;checking avaliable date&amp;nbsp;&lt;/font&gt;" style="text;html=1;align=center;verticalAlign=middle;whiteSpace=wrap;rounded=0;fillColor=#f5f5f5;fontColor=#333333;strokeColor=#666666;" parent="xHljszJYPhc9ebfFINsq-2" vertex="1">
          <mxGeometry y="20" width="100" height="90" as="geometry" />
        </mxCell>
        <mxCell id="xHljszJYPhc9ebfFINsq-3" style="edgeStyle=orthogonalEdgeStyle;rounded=0;orthogonalLoop=1;jettySize=auto;html=1;entryX=0.5;entryY=0;entryDx=0;entryDy=0;" parent="1" source="paKvx9Uk_GRRgDhh7UZd-7" target="xHljszJYPhc9ebfFINsq-2" edge="1">
          <mxGeometry relative="1" as="geometry" />
        </mxCell>
        <mxCell id="xHljszJYPhc9ebfFINsq-5" value="3.2" style="swimlane;fontStyle=0;childLayout=stackLayout;horizontal=1;startSize=20;fillColor=#ffffff;horizontalStack=0;resizeParent=1;resizeParentMax=0;resizeLast=0;collapsible=0;marginBottom=0;swimlaneFillColor=#ffffff;" parent="1" vertex="1">
          <mxGeometry x="50" y="750" width="110" height="90" as="geometry" />
        </mxCell>
        <mxCell id="xHljszJYPhc9ebfFINsq-10" value="&lt;font style=&quot;&quot;&gt;&lt;span style=&quot;color: rgb(31, 31, 31); font-family: Arial, &amp;quot;Noto Naskh Arabic UI&amp;quot;, sans-serif; text-align: start; background-color: rgb(255, 255, 255);&quot;&gt;&lt;font style=&quot;font-size: 15px;&quot;&gt;screening&lt;/font&gt;&lt;/span&gt;&lt;span style=&quot;font-size: 14px; color: rgb(31, 31, 31); font-family: Arial, &amp;quot;Noto Naskh Arabic UI&amp;quot;, sans-serif; text-align: start; background-color: rgb(255, 255, 255);&quot;&gt;&amp;nbsp;&lt;/span&gt;&lt;span style=&quot;font-size: 15px;&quot;&gt;Buffet type&lt;/span&gt;&lt;/font&gt;" style="text;html=1;align=center;verticalAlign=middle;whiteSpace=wrap;rounded=0;fillColor=#f5f5f5;fontColor=#333333;strokeColor=#666666;" parent="xHljszJYPhc9ebfFINsq-5" vertex="1">
          <mxGeometry y="20" width="110" height="70" as="geometry" />
        </mxCell>
        <mxCell id="xHljszJYPhc9ebfFINsq-6" style="edgeStyle=orthogonalEdgeStyle;rounded=0;orthogonalLoop=1;jettySize=auto;html=1;entryX=0.5;entryY=0;entryDx=0;entryDy=0;" parent="1" source="xHljszJYPhc9ebfFINsq-4" target="xHljszJYPhc9ebfFINsq-5" edge="1">
          <mxGeometry relative="1" as="geometry" />
        </mxCell>
        <mxCell id="xHljszJYPhc9ebfFINsq-7" value="check date&amp;nbsp;" style="text;html=1;align=center;verticalAlign=middle;whiteSpace=wrap;rounded=0;" parent="1" vertex="1">
          <mxGeometry x="105" y="495" width="60" height="30" as="geometry" />
        </mxCell>
        <mxCell id="xHljszJYPhc9ebfFINsq-8" value="&lt;span style=&quot;font-size: 15px;&quot;&gt;Deliver date info&lt;/span&gt;" style="text;html=1;align=center;verticalAlign=middle;whiteSpace=wrap;rounded=0;" parent="1" vertex="1">
          <mxGeometry x="120" y="700" width="90" height="30" as="geometry" />
        </mxCell>
        <mxCell id="xHljszJYPhc9ebfFINsq-11" value="3.2" style="swimlane;fontStyle=0;childLayout=stackLayout;horizontal=1;startSize=20;fillColor=#ffffff;horizontalStack=0;resizeParent=1;resizeParentMax=0;resizeLast=0;collapsible=0;marginBottom=0;swimlaneFillColor=#ffffff;" parent="1" vertex="1">
          <mxGeometry x="50" y="930" width="100" height="90" as="geometry" />
        </mxCell>
        <mxCell id="xHljszJYPhc9ebfFINsq-13" value="&lt;span style=&quot;font-size: 14px;&quot;&gt;manage music system&amp;nbsp;&lt;/span&gt;" style="text;html=1;align=center;verticalAlign=middle;whiteSpace=wrap;rounded=0;fillColor=#f5f5f5;fontColor=#333333;strokeColor=#666666;" parent="xHljszJYPhc9ebfFINsq-11" vertex="1">
          <mxGeometry y="20" width="100" height="70" as="geometry" />
        </mxCell>
        <mxCell id="xHljszJYPhc9ebfFINsq-15" value="&lt;font style=&quot;font-size: 14px;&quot;&gt;send date&amp;nbsp;&lt;/font&gt;" style="text;html=1;align=center;verticalAlign=middle;whiteSpace=wrap;rounded=0;" parent="1" vertex="1">
          <mxGeometry x="-20" y="580" width="60" height="30" as="geometry" />
        </mxCell>
        <mxCell id="xHljszJYPhc9ebfFINsq-17" value="D4.1" style="html=1;dashed=0;whiteSpace=wrap;shape=mxgraph.dfd.dataStoreID;align=left;spacingLeft=3;points=[[0,0],[0.5,0],[1,0],[0,0.5],[1,0.5],[0,1],[0.5,1],[1,1]];" parent="1" vertex="1">
          <mxGeometry x="300" y="790" width="100" height="30" as="geometry" />
        </mxCell>
        <mxCell id="xHljszJYPhc9ebfFINsq-18" value="save food list" style="text;html=1;align=center;verticalAlign=middle;whiteSpace=wrap;rounded=0;" parent="1" vertex="1">
          <mxGeometry x="330" y="790" width="60" height="30" as="geometry" />
        </mxCell>
        <mxCell id="xHljszJYPhc9ebfFINsq-19" style="edgeStyle=orthogonalEdgeStyle;rounded=0;orthogonalLoop=1;jettySize=auto;html=1;entryX=0;entryY=0.5;entryDx=0;entryDy=0;" parent="1" source="xHljszJYPhc9ebfFINsq-10" target="xHljszJYPhc9ebfFINsq-17" edge="1">
          <mxGeometry relative="1" as="geometry" />
        </mxCell>
        <mxCell id="xHljszJYPhc9ebfFINsq-21" value="D4.2" style="html=1;dashed=0;whiteSpace=wrap;shape=mxgraph.dfd.dataStoreID;align=left;spacingLeft=3;points=[[0,0],[0.5,0],[1,0],[0,0.5],[1,0.5],[0,1],[0.5,1],[1,1]];" parent="1" vertex="1">
          <mxGeometry x="290" y="950" width="100" height="30" as="geometry" />
        </mxCell>
        <mxCell id="xHljszJYPhc9ebfFINsq-22" style="edgeStyle=orthogonalEdgeStyle;rounded=0;orthogonalLoop=1;jettySize=auto;html=1;entryX=0;entryY=0.5;entryDx=0;entryDy=0;" parent="1" source="xHljszJYPhc9ebfFINsq-13" target="xHljszJYPhc9ebfFINsq-21" edge="1">
          <mxGeometry relative="1" as="geometry" />
        </mxCell>
        <mxCell id="xHljszJYPhc9ebfFINsq-23" value="music list" style="text;html=1;align=center;verticalAlign=middle;whiteSpace=wrap;rounded=0;" parent="1" vertex="1">
          <mxGeometry x="330" y="950" width="60" height="30" as="geometry" />
        </mxCell>
        <mxCell id="xHljszJYPhc9ebfFINsq-24" value="Type of food" style="text;html=1;align=center;verticalAlign=middle;whiteSpace=wrap;rounded=0;" parent="1" vertex="1">
          <mxGeometry x="200" y="770" width="60" height="30" as="geometry" />
        </mxCell>
        <mxCell id="xHljszJYPhc9ebfFINsq-25" value="Type of songs" style="text;html=1;align=center;verticalAlign=middle;whiteSpace=wrap;rounded=0;" parent="1" vertex="1">
          <mxGeometry x="180" y="930" width="60" height="30" as="geometry" />
        </mxCell>
        <mxCell id="xHljszJYPhc9ebfFINsq-26" style="edgeStyle=orthogonalEdgeStyle;rounded=0;orthogonalLoop=1;jettySize=auto;html=1;entryX=-0.014;entryY=0.648;entryDx=0;entryDy=0;entryPerimeter=0;" parent="1" source="xHljszJYPhc9ebfFINsq-4" target="xHljszJYPhc9ebfFINsq-13" edge="1">
          <mxGeometry relative="1" as="geometry">
            <Array as="points">
              <mxPoint x="-20" y="615" />
              <mxPoint x="-20" y="995" />
            </Array>
          </mxGeometry>
        </mxCell>
        <mxCell id="Mg745MqrjS08KfrWCxer-1" value="&lt;font style=&quot;font-size: 14px;&quot;&gt;guests info&lt;/font&gt;" style="text;html=1;align=center;verticalAlign=middle;whiteSpace=wrap;rounded=0;" vertex="1" parent="1">
          <mxGeometry x="600" y="600" width="60" height="30" as="geometry" />
        </mxCell>
      </root>
    </mxGraphModel>
  </diagram>
</mxfile>
